<svg width="479" height="279" viewBox="0 0 479 279" fill="none" xmlns="http://www.w3.org/2000/svg">
<path d="M32.0305 60.5006C106.35 88.3419 159.766 58.776 166.505 36.1634C171.162 20.5383 161.707 7.61195 148.031 9.00002C135.589 10.2628 125.066 21.2051 120.005 36.1634C113.398 55.6945 96.3955 107.15 84 140.049C77.6418 156.924 58 165.5 40 165.5C23 165.5 8 157.842 8 142.5C8 111 66 113 85 140.049C96.2249 156.029 110.5 165.5 124.5 165.5C159.5 165.5 173.55 123.286 180.5 99.0001L181 99C180.171 101.307 160 165.5 193.5 165.5C212 165.5 226.197 138.471 234 99H234.5C226.549 145.535 224.183 165.5 231 165.5C241.97 165.5 263.3 99.0002 298 99.0001C312.5 99 321.093 108.139 321.093 108.139L320.649 108.46C320.649 108.46 312.5 99.5 298 99.5C260.5 99.5 252.919 165.5 298 165.5C333.755 165.5 354.181 128.561 361.5 99.0001L362 99C355.5 126.5 350.5 165.5 375 165.5C411.758 165.5 414.5 99.0001 414.5 99.0001H415C412.243 148.863 415.904 214.977 381 255.5C367.555 271.11 343.173 276.5 330.5 263.827C316.173 249.5 324.116 226.639 338.005 215C375 184 435.5 189 477 195.5" stroke="white" stroke-width="16"/>
</svg>
