<svg width="473" height="281" viewBox="0 0 473 281" fill="none" xmlns="http://www.w3.org/2000/svg">
<path d="M32.0305 60.5006C106.35 88.3419 161.293 59.176 166.505 36.1634C169.425 23.2693 161.845 7.59669 148.031 9C135.589 10.2627 125.066 21.2051 120.005 36.1634C113.398 55.6945 96.3955 107.15 84 140.049C71.6045 172.947 8 174 8 142.5C8 111 66 113 85 140.049C125.355 197.5 166.142 143.763 180.5 99C180.5 99 158 160.661 190 165C217 168.661 225.5 140.049 232.5 99.0137C224.549 145.549 222.939 159.6 228.53 163.5C240 171.5 254.3 99 289 99C308.5 99 318.505 114.5 318.505 114.5C318.505 114.5 306.349 99.0137 290 99.0137C265.328 99.0137 249.219 130.5 267 153.5C280 170.316 303.505 168.739 317.288 158C342.817 138.109 352.5 99 352.5 99C352.5 99 331.688 165 366.005 165C387.665 165 399.593 137.995 405.5 99C402.968 140.433 403.843 164.697 393.505 203.5C376.347 267.9 351.243 279.261 329.005 269C306.768 258.739 312.505 227.897 329.005 215C372.505 181 472.005 182 472.005 182" stroke="white" stroke-width="16"/>
</svg>
